<?xml version="1.0" encoding="UTF-8" standalone="no"?>
<svg
   xmlns:dc="http://purl.org/dc/elements/1.1/"
   xmlns:cc="http://creativecommons.org/ns#"
   xmlns:rdf="http://www.w3.org/1999/02/22-rdf-syntax-ns#"
   xmlns:svg="http://www.w3.org/2000/svg"
   xmlns="http://www.w3.org/2000/svg"
   xmlns:sodipodi="http://sodipodi.sourceforge.net/DTD/sodipodi-0.dtd"
   xmlns:inkscape="http://www.inkscape.org/namespaces/inkscape"
   version="1.1"
   id="Ebene_1"
   x="0px"
   y="0px"
   width="100px"
   height="100px"
   viewBox="0 0 100 100"
   enable-background="new 0 0 100 100"
   xml:space="preserve"
   inkscape:version="0.48.2 r9819"
   sodipodi:docname="marriage.svg"><metadata
   id="metadata9"><rdf:RDF><cc:Work
       rdf:about=""><dc:format>image/svg+xml</dc:format><dc:type
         rdf:resource="http://purl.org/dc/dcmitype/StillImage" /><dc:title></dc:title></cc:Work></rdf:RDF></metadata><defs
   id="defs7" /><sodipodi:namedview
   pagecolor="#ffffff"
   bordercolor="#666666"
   borderopacity="1"
   objecttolerance="10"
   gridtolerance="10"
   guidetolerance="10"
   inkscape:pageopacity="0"
   inkscape:pageshadow="2"
   inkscape:window-width="640"
   inkscape:window-height="480"
   id="namedview5"
   showgrid="false"
   inkscape:zoom="2.36"
   inkscape:cx="44.219"
   inkscape:cy="51.449048"
   inkscape:window-x="198"
   inkscape:window-y="365"
   inkscape:window-maximized="0"
   inkscape:current-layer="Ebene_1" />
<path
   d="m 70.801971,19.225508 c -7.954603,0.0027 -15.1632,3.165265 -20.456902,8.294593 C 45.05277,22.392176 37.845578,19.231128 29.890976,19.228319 13.651613,19.231163 0.4932222,32.390927 0.49041196,48.630288 0.49317112,64.869649 13.651613,78.032256 29.890976,78.033661 c 7.953198,0 15.161794,-3.162453 20.455497,-8.293187 5.292298,5.130734 12.49949,8.291782 20.455498,8.293187 16.239361,-0.0042 29.383699,-13.165418 29.383699,-29.400565 0,-16.243576 -13.144338,-29.403373 -29.383699,-29.407588 z M 50.346473,61.693146 c -2.413636,-3.770779 -3.822761,-8.249636 -3.829787,-13.061453 0.0071,-4.816034 1.416151,-9.29489 3.831192,-13.064265 2.413638,3.769375 3.824167,8.248231 3.832597,13.061454 -0.0098,4.813224 -1.420365,9.293485 -3.834002,13.064264 z M 5.6056914,48.628882 C 5.629576,35.214795 16.478293,24.363267 29.892379,24.340788 c 6.670517,0.01125 12.707418,2.703047 17.093547,7.056866 -3.508061,4.841321 -5.584518,10.792522 -5.585923,17.234039 0.0015,6.435894 2.077862,12.38569 5.585923,17.228417 -4.386129,4.355224 -10.42303,7.047032 -17.093547,7.058271 C 16.478293,72.893093 5.6281702,62.041563 5.6056914,48.628882 z M 70.801971,72.919787 c -6.67192,-0.01265 -12.708821,-2.705858 -17.094952,-7.058272 3.509467,-4.842727 5.584519,-10.793928 5.58733,-17.232633 -0.0027,-6.438706 -2.077863,-12.388501 -5.58733,-17.231228 4.386131,-4.353819 10.423032,-7.047032 17.094952,-7.056866 13.411278,0.02528 24.255787,10.875412 24.278262,24.290905 -0.0225,13.40987 -10.866984,24.265615 -24.278262,24.288094 z"
   id="path3"
   inkscape:connector-curvature="0" />
</svg>