<?xml version="1.0" encoding="UTF-8" standalone="no"?>
<svg
   xmlns:dc="http://purl.org/dc/elements/1.1/"
   xmlns:cc="http://creativecommons.org/ns#"
   xmlns:rdf="http://www.w3.org/1999/02/22-rdf-syntax-ns#"
   xmlns:svg="http://www.w3.org/2000/svg"
   xmlns="http://www.w3.org/2000/svg"
   xmlns:sodipodi="http://sodipodi.sourceforge.net/DTD/sodipodi-0.dtd"
   xmlns:inkscape="http://www.inkscape.org/namespaces/inkscape"
   version="1.1"
   id="Ebene_1"
   x="0px"
   y="0px"
   width="100px"
   height="100px"
   viewBox="0 0 100 100"
   enable-background="new 0 0 100 100"
   xml:space="preserve"
   inkscape:version="0.48.2 r9819"
   sodipodi:docname="marriage.svg"><metadata
   id="metadata9"><rdf:RDF><cc:Work
       rdf:about=""><dc:format>image/svg+xml</dc:format><dc:type
         rdf:resource="http://purl.org/dc/dcmitype/StillImage" /></cc:Work></rdf:RDF></metadata><defs
   id="defs7" /><sodipodi:namedview
   pagecolor="#ffffff"
   bordercolor="#666666"
   borderopacity="1"
   objecttolerance="10"
   gridtolerance="10"
   guidetolerance="10"
   inkscape:pageopacity="0"
   inkscape:pageshadow="2"
   inkscape:window-width="640"
   inkscape:window-height="480"
   id="namedview5"
   showgrid="false"
   inkscape:zoom="2.36"
   inkscape:cx="44.219"
   inkscape:cy="51.449048"
   inkscape:window-x="198"
   inkscape:window-y="365"
   inkscape:window-maximized="0"
   inkscape:current-layer="Ebene_1" />
<path
   d="m 69.410668,22.19161 c -7.553398,0.0026 -14.398415,3.005618 -19.425119,7.876239 -5.025372,-4.869288 -11.869055,-7.870903 -19.422452,-7.87357 -15.420299,0.0027 -27.9150217,12.498726 -27.9176902,27.919024 0.00262,15.420298 12.4973912,27.919024 27.9176902,27.920358 7.552063,0 14.39708,-3.002949 19.423785,-7.874904 5.025371,4.871955 11.869054,7.87357 19.423786,7.874904 15.420298,-0.004 27.90168,-12.501395 27.90168,-27.917691 0,-15.4243 -12.481382,-27.920358 -27.90168,-27.92436 z M 49.986882,62.517311 c -2.2919,-3.580593 -3.629953,-7.833549 -3.636624,-12.402674 0.0067,-4.573128 1.344724,-8.826084 3.637958,-12.405343 2.291901,3.579259 3.631288,7.832215 3.639292,12.402674 -0.0093,4.57046 -1.348725,8.82475 -3.640626,12.405343 z M 7.5026873,50.111968 C 7.5253673,37.374447 17.826909,27.070236 30.56443,27.048891 c 6.334076,0.01068 12.066494,2.566714 16.231401,6.700939 -3.331125,4.59714 -5.302853,10.248181 -5.304187,16.364807 0.0014,6.111288 1.973062,11.760995 5.304187,16.35947 C 42.630924,70.609666 36.898506,73.165708 30.56443,73.17638 17.826909,73.152367 7.5240323,62.848155 7.5026873,50.111968 z M 69.410668,73.177715 c -6.335409,-0.01201 -12.067827,-2.569383 -16.232735,-6.702274 3.33246,-4.598475 5.302853,-10.249516 5.305522,-16.363473 -0.0026,-6.113957 -1.973062,-11.763663 -5.305522,-16.362138 4.164908,-4.134225 9.897326,-6.691601 16.232735,-6.700939 12.734854,0.02401 23.032399,10.32689 23.053741,23.065746 -0.02137,12.733518 -10.318887,23.041733 -23.053741,23.063078 z"
   id="path3"
   inkscape:connector-curvature="0" />
</svg>