<svg xmlns="http://www.w3.org/2000/svg" xmlns:xlink="http://www.w3.org/1999/xlink" version="1.1" x="0px" y="0px" width="100px" height="100px" viewBox="0 0 100 100" enable-background="new 0 0 100 100" xml:space="preserve">
<g id="Captions" display="none">
</g>
<g id="Your_Icon">
	<path d="M92.036,13.167H41.764c-4.378,0-7.964,3.586-7.964,7.964v0.498c0,4.379,3.586,7.964,7.964,7.964h50.272   c4.379,0,7.964-3.585,7.964-7.964v-0.498C100,16.753,96.415,13.167,92.036,13.167z"/>
	<path d="M92.036,42.701H41.764c-4.378,0-7.964,3.586-7.964,7.964v0.498c0,4.379,3.586,7.964,7.964,7.964h50.272   c4.379,0,7.964-3.585,7.964-7.964v-0.498C100,46.287,96.415,42.701,92.036,42.701z"/>
	<path d="M92.036,72.235H41.764c-4.378,0-7.964,3.586-7.964,7.964v0.498c0,4.379,3.586,7.964,7.964,7.964h50.272   c4.379,0,7.964-3.585,7.964-7.964v-0.498C100,75.821,96.415,72.235,92.036,72.235z"/>
	<polygon points="22.554,13 10.639,13.031 10.639,72.068 0,72.068 22.554,88.661  "/>
</g>
</svg>